<svg width="1800" height="1800" viewBox="0 0 1800 1800" fill="none" xmlns="http://www.w3.org/2000/svg">
<rect width="1800" height="1800" rx="900" fill="url(#paint0_linear_107_88)"/>
<path d="M393.365 1369.41C389.69 1368.31 385.365 1364.61 383.521 1360.99C381.977 1357.96 381.845 1356 381.845 1336.24C381.845 1323.16 382.194 1313.86 382.738 1312.41C383.836 1309.5 388.136 1304.9 391.525 1303.02C393.872 1301.71 430.618 1301.6 911.643 1301.4C1273.56 1301.25 1430.23 1301.46 1432.54 1302.08C1436.53 1303.15 1442.32 1308.17 1443.88 1311.91C1444.73 1313.95 1445.01 1320 1445 1336.34C1444.99 1357.27 1444.92 1358.17 1443.1 1361.39C1442.06 1363.22 1439.57 1365.88 1437.57 1367.29L1433.93 1369.85L914.83 1369.99C629.327 1370.06 394.668 1369.81 393.365 1369.41ZM409.976 1347.86C410.708 1347.57 411.307 1346.58 411.307 1345.66C411.307 1344.19 410.929 1344.04 408.411 1344.51C404.744 1345.2 401.479 1344.4 400.807 1342.64C399.943 1340.39 401.306 1332.43 402.89 1330.47C404.07 1329.01 405.291 1328.63 408.892 1328.6C412.84 1328.58 413.412 1328.36 413.412 1326.89C413.412 1325.44 412.764 1325.16 408.863 1324.94C400.214 1324.45 397.099 1327.79 396.343 1338.37C395.969 1343.59 396.104 1344.18 398.113 1346.19C399.867 1347.95 401.095 1348.37 404.466 1348.37C406.764 1348.37 409.243 1348.14 409.976 1347.86ZM428.862 1347.17C432.067 1345.51 433.361 1342.29 433.832 1334.82C434.222 1328.64 434.16 1328.37 431.917 1326.61C428.786 1324.14 422.503 1324.1 419.425 1326.52C414.669 1330.26 413.214 1343.62 417.209 1346.86C419.484 1348.7 425.583 1348.86 428.862 1347.17ZM420.777 1344.44C419.317 1343.85 419.42 1335.57 420.932 1331.94C422.246 1328.8 425.685 1327.25 428.063 1328.74C430.705 1330.4 429.837 1340.65 426.798 1343.7C425.528 1344.97 422.889 1345.29 420.777 1344.44ZM440.227 1346.89C440.454 1346.08 441.313 1341.63 442.136 1336.99C442.958 1332.36 443.771 1329.23 443.942 1330.03C444.113 1330.83 444.7 1334.43 445.247 1338.03L446.241 1344.58L452.257 1345.08L455.502 1337.05C457.286 1332.63 458.879 1329.14 459.04 1329.31C459.201 1329.47 458.948 1332.97 458.476 1337.09C457.219 1348.07 457.261 1348.53 459.499 1348.21C461.116 1347.98 461.477 1347.27 461.964 1343.31C462.278 1340.76 462.657 1335.65 462.806 1331.94L463.077 1325.2H456.471L449.608 1341.95L447.083 1325.2L444.24 1324.93C442.676 1324.78 441.049 1325.01 440.624 1325.43C439.72 1326.34 435.802 1347.33 436.421 1347.95C437.402 1348.93 439.847 1348.25 440.227 1346.89ZM470.232 1347.55C470.232 1346.35 472.734 1328.9 473.234 1326.62C473.609 1324.9 473.38 1324.7 471.323 1324.93C469.015 1325.2 468.968 1325.32 467.567 1334.89C465.602 1348.3 465.605 1348.37 468.127 1348.37C469.285 1348.37 470.232 1348 470.232 1347.55ZM488.615 1346.89C490.893 1344.96 491.752 1340.04 490.183 1337.91C489.53 1337.03 487.331 1335.65 485.296 1334.86C482.655 1333.83 481.515 1332.87 481.312 1331.51C480.93 1328.95 482.42 1328.18 487.76 1328.16C491.57 1328.15 492.199 1327.93 491.961 1326.68C491.735 1325.49 490.636 1325.15 486.344 1324.95C480.073 1324.65 477.392 1325.98 476.556 1329.79C475.639 1333.96 476.756 1335.73 481.679 1337.91C484.969 1339.37 486.226 1340.38 486.226 1341.59C486.226 1343.96 483.224 1345.26 478.884 1344.77C476.079 1344.45 475.037 1344.66 474.676 1345.6C473.94 1347.52 476.04 1348.34 481.713 1348.35C485.427 1348.36 487.369 1347.95 488.615 1346.89ZM498.011 1347.94C498.011 1347.35 500.412 1330.86 500.984 1327.52C501.411 1325.03 501.262 1324.78 499.327 1324.78C496.879 1324.78 496.94 1324.59 495.089 1337.65C493.473 1349.05 493.42 1348.37 495.906 1348.37C497.064 1348.37 498.011 1348.17 498.011 1347.94ZM516.852 1347.56C519.786 1346.45 521.427 1343.61 522.501 1337.8C523.591 1331.9 522.492 1327.01 519.746 1325.54C518.745 1325.01 515.946 1324.76 513.32 1324.98C507.254 1325.48 505.299 1327.64 503.962 1335.32C502.82 1341.89 503.73 1345.93 506.666 1347.35C509.041 1348.5 514.114 1348.6 516.852 1347.56ZM509.122 1343.99C507.845 1342.71 507.895 1336.22 509.212 1332.38C511.057 1327 517.454 1326.71 518.074 1331.98C518.55 1336.01 517.336 1341.66 515.627 1343.37C513.797 1345.21 510.637 1345.5 509.122 1343.99ZM529.455 1346.89C529.682 1346.08 530.328 1342.01 530.89 1337.85L531.913 1330.27L534.738 1337.85C538.245 1347.25 538.613 1347.89 540.68 1348.2C543.313 1348.59 544.004 1346.92 545.471 1336.57C547.199 1324.39 547.221 1324.78 544.809 1324.78C542.868 1324.78 542.74 1325.15 541.706 1333.61C541.113 1338.46 540.428 1342.24 540.183 1341.99C539.938 1341.75 538.363 1337.87 536.684 1333.37C534.17 1326.64 533.294 1325.15 531.718 1324.92C530.665 1324.76 529.483 1324.96 529.09 1325.35C528.309 1326.13 525.789 1341.77 525.789 1345.83C525.789 1347.78 526.169 1348.37 527.416 1348.37C528.311 1348.37 529.228 1347.7 529.455 1346.89ZM569.462 1347.43C573.035 1346.19 574.656 1342.77 575.221 1335.29C575.659 1329.5 575.56 1329.02 573.504 1326.96C571.55 1325.01 570.673 1324.78 565.105 1324.78H558.888L557.49 1334.68C555.413 1349.38 555.122 1348.37 561.439 1348.37C564.38 1348.37 567.99 1347.95 569.462 1347.43ZM560.749 1342.68C561.4 1338.96 562.814 1329.47 562.821 1328.78C562.831 1327.84 567.741 1328.02 569.617 1329.02C571.44 1330 571.704 1333.15 570.425 1338.68C569.473 1342.79 566.942 1345 563.176 1345C560.55 1345 560.374 1344.83 560.749 1342.68ZM591.238 1347.84C592.352 1347.54 593.132 1346.67 593.132 1345.74C593.132 1344.36 592.465 1344.16 588.03 1344.16H582.929L583.451 1337.84L588.291 1337.58C592.443 1337.37 593.132 1337.1 593.132 1335.69C593.132 1334.26 592.53 1334.05 588.412 1334.05C584.454 1334.05 583.774 1333.83 584.203 1332.71C584.484 1331.98 584.714 1330.86 584.714 1330.23C584.714 1329.4 586.202 1329 589.975 1328.82C594.7 1328.6 595.264 1328.38 595.505 1326.68C595.762 1324.87 595.508 1324.78 589.916 1324.78C582.246 1324.78 580.719 1325.98 579.72 1332.78C577.861 1345.45 577.864 1344.88 579.655 1346.67C581.382 1348.4 587.018 1348.97 591.238 1347.84ZM618.878 1347.31C619.184 1347.01 619.211 1346.17 618.937 1345.46C618.562 1344.48 617.151 1344.16 613.263 1344.16C608.307 1344.16 608.109 1344.07 608.595 1342.26C608.874 1341.22 609.108 1339.72 609.114 1338.93C609.124 1337.78 610.076 1337.45 613.966 1337.25C617.595 1337.06 618.806 1336.68 618.806 1335.73C618.806 1334.8 617.634 1334.4 614.335 1334.21C610.029 1333.96 609.874 1333.87 610.126 1331.68C610.375 1329.53 610.666 1329.39 615.86 1328.99C620.63 1328.63 621.331 1328.36 621.331 1326.89C621.331 1325.39 620.689 1325.18 615.434 1324.96C607.134 1324.62 606.747 1325.03 605.096 1336.09L603.733 1345.21L605.786 1346.87C607.467 1348.24 608.791 1348.48 613.08 1348.2C615.962 1348.02 618.571 1347.62 618.878 1347.31ZM636.459 1347.17C638.862 1346.16 639.539 1345.25 640.641 1341.54C642.666 1334.72 642.391 1329.35 639.889 1326.85C638.068 1325.03 637.084 1324.78 631.606 1324.78H625.389L623.991 1334.68C621.91 1349.4 621.599 1348.37 628.093 1348.37C631.117 1348.37 634.882 1347.83 636.459 1347.17ZM627.25 1342.68C627.901 1338.96 629.315 1329.47 629.322 1328.78C629.331 1327.84 634.241 1328.02 636.118 1329.02C637.941 1330 638.205 1333.15 636.926 1338.68C635.974 1342.79 633.443 1345 629.677 1345C627.051 1345 626.874 1344.83 627.25 1342.68ZM658.275 1347.56C661.153 1346.47 662.596 1343.27 663.728 1335.49C665.143 1325.76 665.049 1324.78 662.698 1324.78C660.832 1324.78 660.65 1325.25 659.658 1332.57C658.275 1342.78 657.145 1344.96 653.212 1344.98C649.673 1345.01 649.239 1343.23 650.553 1334.05C651.217 1329.41 651.575 1325.42 651.348 1325.19C651.12 1324.97 650.1 1324.78 649.08 1324.78C647.381 1324.78 647.146 1325.4 646.274 1332.21C644.861 1343.23 644.982 1344.61 647.54 1346.62C649.938 1348.51 654.69 1348.92 658.275 1347.56ZM681.029 1347.86C681.761 1347.57 682.36 1346.58 682.36 1345.66C682.36 1344.19 681.982 1344.04 679.465 1344.51C675.579 1345.24 672.434 1344.35 671.796 1342.34C670.979 1339.76 672.261 1332.55 673.896 1330.53C675.085 1329.06 676.208 1328.72 679.638 1328.8C682.755 1328.87 684.035 1328.55 684.396 1327.6C684.668 1326.89 684.678 1325.97 684.419 1325.55C683.745 1324.46 675.268 1324.6 672.761 1325.74C669.842 1327.07 667.873 1331.71 667.397 1338.37C667.024 1343.59 667.158 1344.18 669.167 1346.19C670.921 1347.95 672.15 1348.37 675.52 1348.37C677.818 1348.37 680.297 1348.14 681.029 1347.86ZM688.947 1345.01C690.337 1341.69 690.422 1341.64 694.777 1341.64L699.196 1341.63V1344.6C699.196 1347.64 700.603 1348.98 702.874 1348.1C703.831 1347.74 703.74 1346.04 702.334 1338.12C700.094 1325.49 699.8 1324.78 696.795 1324.78C695.451 1324.78 693.952 1325.26 693.464 1325.85C692.639 1326.84 683.202 1347.22 683.202 1348.01C683.202 1348.21 684.177 1348.37 685.369 1348.37C687.1 1348.37 687.82 1347.69 688.947 1345.01ZM692.462 1337.52C692.462 1337.12 693.368 1334.75 694.475 1332.26L696.489 1327.73L697.049 1331.1C697.357 1332.95 697.784 1335.32 697.998 1336.36C698.342 1338.04 698.05 1338.26 695.424 1338.26C693.795 1338.26 692.462 1337.93 692.462 1337.52ZM720.593 1347.86C721.325 1347.57 721.924 1346.6 721.924 1345.7C721.924 1344.23 721.523 1344.11 718.232 1344.61C711.403 1345.63 709.484 1342.42 711.842 1333.93C713.013 1329.71 714.643 1328.6 719.393 1328.81C722.745 1328.96 723.484 1328.71 723.84 1327.35C724.44 1325.06 723.908 1324.78 718.892 1324.78C710.086 1324.78 707.586 1327.62 706.951 1338.33C706.585 1344.5 706.651 1344.78 708.89 1346.54C711.199 1348.36 717.452 1349.06 720.593 1347.86ZM730.073 1342.05C730.62 1338.81 731.332 1333.59 731.655 1330.47C732.239 1324.82 732.227 1324.78 730.165 1324.78C728.152 1324.78 728.042 1325.09 726.688 1334.68C724.814 1347.94 724.837 1348.55 727.185 1348.21C728.828 1347.98 729.211 1347.16 730.073 1342.05ZM748.261 1347.45C751.501 1345.98 753.302 1341.95 753.733 1335.23C754.098 1329.54 753.979 1328.98 751.952 1326.95C750.217 1325.22 748.962 1324.78 745.72 1324.78C738.315 1324.78 735.132 1329 735.033 1338.96C734.978 1344.48 735.185 1345.31 736.959 1346.75C739.197 1348.57 745.019 1348.93 748.261 1347.45ZM740.767 1344.35C739.113 1343.26 738.722 1340.37 739.594 1335.68C740.813 1329.11 744.534 1326.45 748.465 1329.33C749.951 1330.41 750 1330.94 749.11 1336.14C748.579 1339.24 747.49 1342.5 746.689 1343.39C745.208 1345.03 742.465 1345.47 740.767 1344.35ZM760.261 1347.31C760.483 1346.73 761.144 1342.67 761.731 1338.29L762.798 1330.32L766.189 1339.13C769.43 1347.56 769.688 1347.95 772.057 1347.95C774.47 1347.95 774.562 1347.79 775.529 1342.05C776.076 1338.81 776.788 1333.59 777.111 1330.47C777.667 1325.1 777.603 1324.78 775.964 1324.78C773.924 1324.78 773.722 1325.37 772.39 1335.24L771.377 1342.74L767.905 1333.97C764.576 1325.56 764.331 1325.2 761.909 1325.2H759.383L757.965 1334.47C756.025 1347.14 756.041 1348.37 758.147 1348.37C759.088 1348.37 760.039 1347.89 760.261 1347.31ZM799.999 1347.84C801.113 1347.54 801.893 1346.67 801.893 1345.74C801.893 1344.36 801.228 1344.16 796.843 1344.16C791.444 1344.16 791.119 1343.81 792.323 1339.31C792.769 1337.64 793.374 1337.42 797.362 1337.42C801.332 1337.42 801.893 1337.21 801.893 1335.73C801.893 1334.27 801.332 1334.05 797.684 1334.05C793.569 1334.05 793.476 1333.99 793.476 1331.52V1328.99H798.947C804.222 1328.99 804.419 1328.92 804.419 1326.89C804.419 1324.84 804.244 1324.78 798.619 1324.78C790.868 1324.78 789.659 1325.86 788.482 1333.79C787.033 1343.55 787.255 1346.6 789.477 1347.5C791.686 1348.39 797.276 1348.57 799.999 1347.84ZM809.769 1346.05C810.008 1344.78 810.431 1341.84 810.71 1339.52C811.898 1329.65 811.93 1329.64 815.252 1338.65C818.465 1347.37 820.17 1349.46 822.727 1347.85C823.827 1347.16 824.558 1344.49 825.611 1337.32C827.498 1324.48 827.509 1324.78 825.147 1324.78C822.911 1324.78 822.552 1325.84 821.582 1335.31C821.271 1338.35 820.777 1340.98 820.483 1341.16C820.189 1341.35 818.516 1337.73 816.765 1333.14C813.964 1325.79 813.34 1324.78 811.575 1324.78C810.471 1324.78 809.32 1325.18 809.016 1325.68C808.26 1326.9 805.364 1346.95 805.829 1347.74C806.782 1349.35 809.358 1348.25 809.769 1346.05ZM838.721 1344.96L840.059 1341.55L844.336 1341.8C848.521 1342.04 848.621 1342.11 849.033 1345C849.355 1347.25 849.898 1348.01 851.348 1348.21C852.848 1348.43 853.239 1348.08 853.229 1346.53C853.213 1343.98 850.052 1326.59 849.42 1325.57C848.708 1324.42 844.329 1324.61 843.337 1325.83C842.512 1326.85 833.039 1347.24 833.039 1347.99C833.039 1348.2 834.017 1348.37 835.211 1348.37C836.968 1348.37 837.639 1347.72 838.721 1344.96ZM842.35 1337.21C842.438 1335.43 846.359 1327.64 846.488 1328.99C846.554 1329.69 846.904 1332.06 847.266 1334.26L847.924 1338.26H845.112C843.395 1338.26 842.319 1337.85 842.35 1337.21ZM869.025 1347.84C870.139 1347.54 870.919 1346.67 870.919 1345.74C870.919 1344.36 870.253 1344.16 865.83 1344.16H860.742L861.187 1341.42C861.432 1339.91 862.017 1336.43 862.488 1333.68C863.816 1325.92 863.668 1324.78 861.333 1324.78C859.094 1324.78 859.103 1324.75 857.337 1337.75C856.335 1345.13 856.349 1345.28 858.24 1346.81C860.176 1348.38 865.215 1348.86 869.025 1347.84ZM879.364 1347.74C879.38 1347.39 879.939 1343.31 880.61 1338.68C881.281 1334.05 881.837 1329.99 881.846 1329.67C881.856 1329.35 883.472 1328.97 885.44 1328.83C888.414 1328.61 889.063 1328.25 889.286 1326.68C889.551 1324.81 889.419 1324.78 880.237 1324.78H870.919V1326.89C870.919 1328.78 871.256 1328.99 874.286 1328.99C876.138 1328.99 877.647 1329.28 877.638 1329.62C877.629 1329.97 877.069 1333.86 876.391 1338.26C875.713 1342.66 875.152 1346.73 875.143 1347.31C875.128 1348.42 879.317 1348.83 879.364 1347.74ZM890.701 1345C892.163 1341.75 892.368 1341.63 896.217 1341.63C900.143 1341.63 900.228 1341.68 900.958 1344.79C901.506 1347.12 902.189 1348.02 903.567 1348.21C904.835 1348.4 905.432 1348.05 905.432 1347.12C905.432 1344.4 901.913 1326.03 901.263 1325.35C900.896 1324.97 899.377 1324.78 897.887 1324.93C895.293 1325.19 894.967 1325.66 890.204 1336.09C887.468 1342.09 885.23 1347.3 885.23 1347.68C885.23 1348.06 886.119 1348.37 887.206 1348.37C888.698 1348.37 889.555 1347.54 890.701 1345ZM895.762 1333.52C896.914 1330.91 897.9 1328.55 897.953 1328.26C898.116 1327.37 899.44 1334.34 899.491 1336.36C899.533 1337.98 899.102 1338.26 896.604 1338.26H893.669L895.762 1333.52ZM923.894 1341.42C925.752 1328.21 925.366 1329.11 929.298 1328.83C932.185 1328.62 932.837 1328.24 933.059 1326.68C933.324 1324.81 933.192 1324.78 924.01 1324.78H914.692V1326.89C914.692 1328.78 915.03 1328.99 918.038 1328.99C921.22 1328.99 921.365 1329.11 921.002 1331.31C920.143 1336.51 918.901 1345.83 918.901 1347.05C918.901 1347.88 919.652 1348.37 920.908 1348.37C922.783 1348.37 922.981 1347.91 923.894 1341.42ZM946.469 1347.84C947.583 1347.54 948.363 1346.67 948.363 1345.74C948.363 1344.36 947.697 1344.16 943.262 1344.16H938.16L938.682 1337.84L943.523 1337.58C947.674 1337.37 948.363 1337.1 948.363 1335.69C948.363 1334.26 947.762 1334.05 943.733 1334.05C938.915 1334.05 938.809 1333.97 939.624 1330.93C940.058 1329.3 940.779 1329.04 945.295 1328.82C949.929 1328.6 950.495 1328.37 950.736 1326.68C950.993 1324.87 950.739 1324.78 945.148 1324.78C936.707 1324.78 935.98 1325.57 934.355 1336.54L933.05 1345.36L934.907 1346.86C936.788 1348.39 942.594 1348.88 946.469 1347.84ZM966.3 1347.89C967.055 1347.6 967.366 1346.76 967.098 1345.73C966.721 1344.29 966.197 1344.12 963.466 1344.58C958.433 1345.44 956.781 1344.07 956.781 1339.04C956.781 1336.73 957.33 1333.52 958.001 1331.91C959.253 1328.91 959.513 1328.81 966.041 1328.65C968.401 1328.59 968.987 1328.24 968.987 1326.89C968.987 1325.41 968.343 1325.17 963.885 1324.96C957.371 1324.64 954.836 1326.41 953.012 1332.56C950.776 1340.1 951.685 1346.04 955.296 1347.49C957.451 1348.36 964.423 1348.61 966.3 1347.89ZM974.756 1345.63C975.023 1344.12 975.494 1340.81 975.802 1338.26C976.11 1335.71 976.607 1333.16 976.906 1332.59C977.206 1332.02 978.538 1334.49 979.867 1338.07C982.926 1346.31 984.196 1348.37 986.213 1348.37C988.477 1348.37 988.751 1347.66 990.087 1338.44C990.739 1333.94 991.484 1329.02 991.742 1327.52C992.167 1325.04 992.013 1324.78 990.136 1324.78C987.847 1324.78 987.585 1325.5 986.595 1334.47C985.898 1340.79 985.016 1342.72 984.123 1339.87C983.773 1338.75 982.369 1334.9 981.003 1331.31C978.845 1325.64 978.252 1324.78 976.471 1324.78C973.871 1324.78 973.14 1326.55 971.945 1335.73C971.432 1339.67 970.799 1344.12 970.537 1345.63C970.106 1348.11 970.256 1348.37 972.166 1348.37C973.88 1348.37 974.361 1347.86 974.756 1345.63ZM1008.07 1347.14C1009.5 1346.39 1010.99 1344.55 1011.82 1342.47C1013.24 1338.91 1013.79 1331.41 1012.85 1328.44C1012.13 1326.15 1008.9 1324.78 1004.24 1324.78C1001.18 1324.78 999.955 1325.25 998.07 1327.14C995.777 1329.43 993.819 1335.56 993.819 1340.45C993.819 1343.31 995.993 1347.31 997.806 1347.78C1000.99 1348.61 1005.8 1348.31 1008.07 1347.14ZM999.88 1343.99C998.603 1342.71 998.653 1336.22 999.97 1332.38C1001.12 1329.02 1004.7 1327.17 1007.12 1328.69C1009.92 1330.44 1009.12 1340.51 1005.94 1343.7C1004.39 1345.25 1001.29 1345.4 999.88 1343.99ZM1028.12 1347.84C1029.24 1347.54 1030.02 1346.67 1030.02 1345.74C1030.02 1344.38 1029.36 1344.16 1025.39 1344.16C1019.85 1344.16 1019.97 1344.94 1022.91 1327.46C1023.36 1324.8 1023.26 1324.67 1021.03 1324.93C1018.75 1325.19 1018.64 1325.43 1017.68 1332.36C1016.21 1343.06 1016.28 1346.44 1018.02 1347.46C1019.66 1348.41 1025.2 1348.62 1028.12 1347.84ZM1046.34 1347.56C1052.02 1345.4 1054.42 1329.62 1049.62 1325.98C1048.79 1325.35 1046.1 1324.82 1043.63 1324.81C1039.82 1324.79 1038.79 1325.14 1036.79 1327.14C1034.61 1329.32 1032.54 1335.52 1032.54 1339.86C1032.54 1342.82 1034.46 1346.82 1036.22 1347.54C1038.67 1348.53 1043.77 1348.54 1046.34 1347.56ZM1038.6 1343.99C1037.32 1342.71 1037.37 1336.22 1038.69 1332.38C1040.54 1327 1046.93 1326.71 1047.55 1331.98C1048.03 1336.01 1046.82 1341.66 1045.11 1343.37C1043.28 1345.2 1040.12 1345.5 1038.6 1343.99ZM1065.33 1347.12C1067.45 1346.03 1067.79 1346.03 1068.21 1347.12C1068.47 1347.81 1069.08 1348.37 1069.57 1348.37C1070.8 1348.37 1071.77 1345.47 1072.47 1339.73C1073.06 1334.96 1073.03 1334.89 1070.95 1334.89C1069.09 1334.89 1068.77 1335.34 1068.27 1338.71C1067.81 1341.75 1067.21 1342.78 1065.32 1343.76C1060.83 1346.08 1058.79 1343.26 1059.85 1336.18C1060.74 1330.26 1062.58 1328.62 1068.15 1328.75C1071.61 1328.83 1072.94 1328.53 1073.31 1327.59C1074.15 1325.37 1072.99 1324.78 1067.8 1324.78C1058.65 1324.78 1056.15 1327.54 1055.47 1338.37C1055.11 1344.1 1055.26 1344.99 1056.85 1346.58C1058.94 1348.67 1061.97 1348.87 1065.33 1347.12ZM1079.68 1347.94C1079.68 1347.34 1082.09 1330.82 1082.67 1327.46C1083.12 1324.79 1083.03 1324.67 1080.78 1324.93C1078.43 1325.2 1078.41 1325.24 1077.02 1335.31C1075.13 1348.92 1075.1 1348.37 1077.58 1348.37C1078.73 1348.37 1079.68 1348.17 1079.68 1347.94ZM1087.95 1344.97C1089.36 1341.59 1089.38 1341.58 1093.57 1341.82C1097.68 1342.04 1097.79 1342.12 1098.2 1344.99C1098.62 1347.9 1100.9 1349.44 1102.4 1347.81C1103.07 1347.1 1099.76 1327.47 1098.68 1325.72C1097.9 1324.45 1093.56 1324.52 1092.5 1325.83C1091.83 1326.65 1085.1 1341.07 1082.47 1347.31C1082.18 1348 1082.8 1348.37 1084.28 1348.37C1086.12 1348.37 1086.8 1347.74 1087.95 1344.97ZM1091.47 1337.52C1091.47 1337.12 1092.36 1334.75 1093.46 1332.26L1095.46 1327.74L1096.05 1331.52C1096.37 1333.61 1096.83 1335.97 1097.06 1336.78C1097.4 1337.99 1096.93 1338.26 1094.47 1338.26C1092.82 1338.26 1091.47 1337.93 1091.47 1337.52ZM1120.54 1344.37C1120.93 1341.54 1122.42 1338.33 1125.64 1333.42C1128.14 1329.61 1130.19 1326.1 1130.19 1325.63C1130.19 1325.16 1129.28 1324.78 1128.16 1324.78C1126.23 1324.78 1124.35 1327.19 1120.5 1334.63C1119.63 1336.3 1119.37 1335.94 1117.66 1330.62C1116.01 1325.5 1115.53 1324.78 1113.72 1324.78C1112.59 1324.78 1111.67 1325 1111.67 1325.27C1111.67 1325.54 1112.83 1329.04 1114.24 1333.06C1116.33 1338.98 1116.72 1341.12 1116.27 1344.36C1115.74 1348.23 1115.79 1348.37 1117.85 1348.37C1119.76 1348.37 1120.04 1347.94 1120.54 1344.37ZM1151.93 1345.96C1152.2 1344.09 1152.03 1344.01 1148.84 1344.55C1143.61 1345.44 1141.97 1344.13 1141.97 1339.04C1141.97 1333.9 1143.86 1329.04 1145.93 1328.86C1146.76 1328.79 1148.96 1328.69 1150.81 1328.65C1153.59 1328.58 1154.18 1328.28 1154.18 1326.89C1154.18 1325.42 1153.53 1325.17 1149.26 1324.95C1141.27 1324.53 1138.12 1327.86 1137.2 1337.71C1136.41 1346.21 1138.52 1348.45 1147.02 1348.12C1151.18 1347.96 1151.68 1347.74 1151.93 1345.96ZM1167.86 1347.84C1168.97 1347.54 1169.75 1346.67 1169.75 1345.74C1169.75 1344.38 1169.09 1344.15 1165.12 1344.15C1159.59 1344.15 1159.7 1344.93 1162.65 1327.46C1163.09 1324.8 1163 1324.67 1160.76 1324.93C1158.48 1325.19 1158.38 1325.43 1157.42 1332.36C1155.82 1343.93 1155.95 1346.6 1158.18 1347.5C1160.4 1348.39 1165.17 1348.56 1167.86 1347.84ZM1186.46 1347.17C1189.61 1345.54 1190.94 1342.33 1191.43 1335.17C1191.82 1329.53 1191.71 1328.99 1189.68 1326.95C1187.94 1325.22 1186.69 1324.78 1183.45 1324.78C1176.51 1324.78 1173.42 1328.45 1172.56 1337.71C1172.01 1343.6 1172.94 1346.32 1175.91 1347.52C1178.75 1348.67 1183.9 1348.49 1186.46 1347.17ZM1178.38 1344.46C1176.92 1343.84 1177.02 1335.56 1178.53 1331.94C1179.85 1328.79 1183.31 1327.25 1185.66 1328.77C1187.72 1330.09 1187.37 1339.33 1185.16 1342.31C1183.55 1344.48 1180.62 1345.4 1178.38 1344.46ZM1210.23 1345.96C1211.9 1343.9 1213.18 1338.63 1214.02 1330.39L1214.6 1324.78H1212.38C1211.16 1324.78 1210.16 1325.13 1210.16 1325.56C1210.16 1328.28 1208.25 1339.92 1207.49 1341.85C1206.47 1344.44 1203.11 1345.75 1200.98 1344.39C1199.47 1343.43 1199.35 1340.44 1200.43 1330.89L1201.11 1324.78H1199.03C1197.06 1324.78 1196.89 1325.16 1195.97 1331.73C1194.46 1342.59 1194.64 1344.58 1197.32 1346.7C1200.44 1349.17 1207.98 1348.74 1210.23 1345.96ZM1232.47 1345.66C1234.78 1342.98 1236.63 1335.04 1235.95 1330.81C1235.19 1326.15 1233.7 1325.25 1226.18 1324.91L1219.53 1324.61L1219.07 1327.43C1218.82 1328.98 1218.21 1333.29 1217.72 1336.99C1217.22 1340.7 1216.61 1344.82 1216.35 1346.14L1215.88 1348.55L1223.19 1348.25C1229.92 1347.97 1230.66 1347.76 1232.47 1345.66ZM1221.16 1343.52C1221.2 1342.71 1221.67 1339.02 1222.22 1335.31C1223.12 1329.22 1223.4 1328.54 1225.19 1328.29C1226.27 1328.14 1228.07 1328.24 1229.18 1328.52C1231 1328.97 1231.2 1329.48 1231.2 1333.52C1231.2 1341.76 1229.08 1345 1223.68 1345C1221.76 1345 1221.12 1344.62 1221.16 1343.52ZM1260.17 1347.86C1260.91 1347.57 1261.51 1346.61 1261.51 1345.72C1261.51 1344.27 1261.08 1344.15 1257.45 1344.64C1251.67 1345.4 1250.18 1343.79 1250.9 1337.59C1251.2 1335.08 1251.83 1332.29 1252.31 1331.39C1253.49 1329.2 1256.55 1328.13 1260.06 1328.7C1262.47 1329.1 1263.02 1328.89 1263.4 1327.45C1264.02 1325.04 1263.53 1324.78 1258.38 1324.78C1249.78 1324.78 1247.23 1327.71 1246.56 1338.33C1246.17 1344.51 1246.23 1344.78 1248.47 1346.54C1250.78 1348.36 1257.03 1349.06 1260.17 1347.86ZM1279 1347.05C1282.24 1344.78 1283.68 1340.87 1283.75 1334.19C1283.81 1328.67 1283.6 1327.84 1281.83 1326.39C1279.42 1324.44 1273.42 1324.23 1270.05 1325.98C1266.84 1327.64 1265.55 1330.85 1265.08 1338.33C1264.69 1344.51 1264.75 1344.78 1266.99 1346.54C1269.8 1348.75 1276.18 1349.03 1279 1347.05ZM1269.91 1343.72C1268.46 1341.96 1269.49 1333.41 1271.5 1330.68C1273.13 1328.45 1276.29 1327.62 1278.27 1328.91C1280.83 1330.58 1278.91 1342.5 1275.8 1344.16C1273.55 1345.37 1271.13 1345.19 1269.91 1343.72ZM1291.46 1339.1C1292.31 1334 1293.23 1329.83 1293.51 1329.83C1293.79 1329.83 1294.5 1333.27 1295.09 1337.46L1296.17 1345.09L1299.18 1344.83C1302.11 1344.58 1302.28 1344.37 1305.44 1336.99L1308.69 1329.41L1308.16 1336.57C1307.26 1348.58 1307.2 1347.92 1309.23 1348.21C1310.74 1348.42 1311.15 1347.97 1311.52 1345.68C1312.49 1339.61 1313.6 1326.15 1313.19 1325.49C1312.51 1324.39 1307.27 1324.66 1306.34 1325.83C1305.88 1326.41 1304.26 1329.99 1302.72 1333.79C1301.19 1337.59 1299.66 1340.54 1299.34 1340.33C1299.01 1340.13 1298.47 1337.42 1298.14 1334.31C1297.28 1326.28 1296.57 1324.78 1293.62 1324.78C1292.27 1324.78 1290.81 1325.25 1290.36 1325.83C1289.92 1326.41 1288.9 1330.68 1288.09 1335.31C1287.29 1339.94 1286.42 1344.78 1286.17 1346.05C1285.76 1348.08 1285.96 1348.37 1287.82 1348.37C1289.84 1348.37 1289.98 1348.02 1291.46 1339.1ZM1320.16 1346.68C1320.24 1345.99 1320.53 1344.08 1320.8 1342.44L1321.28 1339.46H1326C1329.93 1339.46 1331 1339.13 1332.31 1337.5C1334.33 1335.01 1334.49 1328.02 1332.58 1326.1C1330.88 1324.41 1318.76 1324.17 1318.72 1325.83C1318.71 1326.41 1318.02 1331.53 1317.18 1337.21C1316.35 1342.88 1315.87 1347.73 1316.12 1347.98C1317.01 1348.88 1320 1347.92 1320.16 1346.68ZM1322.13 1332.99C1322.15 1329.04 1323.11 1327.98 1326.4 1328.3C1329.48 1328.59 1330.25 1330.02 1329.33 1333.69C1328.89 1335.42 1328.31 1335.73 1325.46 1335.73C1322.24 1335.73 1322.11 1335.63 1322.13 1332.99ZM1351.65 1345.96C1353.32 1343.9 1354.6 1338.63 1355.44 1330.39C1356.01 1324.84 1356 1324.78 1353.95 1324.78C1351.97 1324.78 1351.83 1325.15 1350.54 1333.79C1349.13 1343.25 1348.17 1345 1344.36 1345C1340.77 1345 1340.34 1343.25 1341.65 1334.05C1342.32 1329.41 1342.68 1325.42 1342.45 1325.19C1342.22 1324.97 1341.2 1324.78 1340.18 1324.78C1338.48 1324.78 1338.25 1325.4 1337.38 1332.21C1335.95 1343.32 1336.07 1344.6 1338.74 1346.7C1341.86 1349.17 1349.4 1348.74 1351.65 1345.96ZM1367.04 1346.89C1367.28 1346.08 1367.94 1341.72 1368.51 1337.21L1369.54 1328.99H1373.19C1376.51 1328.99 1376.83 1328.81 1376.83 1326.89V1324.78H1368.08C1360.88 1324.78 1359.24 1325.02 1358.82 1326.11C1357.88 1328.57 1358.29 1328.99 1361.68 1328.99C1365.76 1328.99 1365.74 1328.75 1362.9 1345.63C1362.49 1348.1 1362.64 1348.37 1364.53 1348.37C1365.79 1348.37 1366.78 1347.78 1367.04 1346.89ZM1382.86 1338.26C1384.82 1324.88 1384.82 1324.78 1382.34 1324.78C1380.02 1324.78 1380.08 1324.58 1378.16 1338.68C1377.53 1343.31 1377.2 1347.41 1377.42 1347.78C1377.65 1348.16 1378.64 1348.35 1379.63 1348.2C1381.26 1347.97 1381.58 1346.99 1382.86 1338.26ZM1390.6 1345.63C1390.86 1344.12 1391.33 1340.81 1391.64 1338.26C1392.54 1330.84 1393.18 1330.8 1395.74 1337.98C1397.03 1341.61 1398.62 1345.43 1399.26 1346.47C1400.5 1348.46 1403.27 1349.01 1404.23 1347.45C1404.7 1346.7 1407.93 1327.59 1407.97 1325.41C1407.97 1325.06 1407.07 1324.78 1405.96 1324.78C1403.79 1324.78 1403.57 1325.43 1402.42 1334.89C1401.7 1340.86 1400.83 1342.63 1399.96 1339.87C1399.61 1338.75 1398.21 1334.9 1396.84 1331.31C1394.68 1325.63 1394.09 1324.78 1392.31 1324.78C1389.71 1324.78 1388.98 1326.55 1387.78 1335.73C1387.27 1339.67 1386.64 1344.12 1386.38 1345.63C1385.95 1348.11 1386.1 1348.37 1388.01 1348.37C1389.72 1348.37 1390.2 1347.86 1390.6 1345.63ZM1420.23 1347.13C1422.35 1345.52 1423.13 1345.53 1423.13 1347.16C1423.13 1347.97 1423.7 1348.38 1424.58 1348.21C1425.99 1347.94 1426.19 1347.28 1427.59 1338.05C1428.03 1335.16 1427.9 1334.89 1426.11 1334.89C1423.97 1334.89 1423.13 1336.29 1423.13 1339.88C1423.13 1342.95 1418.17 1345.98 1416.04 1344.21C1414.49 1342.93 1414.29 1337.71 1415.59 1333.02C1416.58 1329.44 1419.52 1328.14 1425.09 1328.81C1428.09 1329.17 1428.3 1329.05 1428.04 1327.2C1427.78 1325.35 1427.33 1325.18 1422.05 1324.95C1416.73 1324.72 1416.18 1324.87 1413.93 1327.11C1409.66 1331.39 1408.43 1343 1411.86 1346.79C1413.58 1348.69 1417.94 1348.86 1420.23 1347.13ZM517.405 1322.24C520.864 1320.47 521.165 1320.02 520.046 1318.25C519.553 1317.48 518.463 1317.88 515.847 1319.8C513.904 1321.23 512.528 1322.75 512.788 1323.17C513.432 1324.21 513.598 1324.18 517.405 1322.24ZM748.911 1322.23C751.81 1320.75 752.143 1320.3 751.384 1318.88C750.536 1317.29 750.4 1317.31 747.191 1319.54C744.047 1321.71 742.78 1323.94 744.686 1323.94C745.167 1323.94 747.068 1323.17 748.911 1322.23ZM1083.94 1322.23C1086.88 1320.73 1087.18 1320.31 1086.39 1318.83C1085.51 1317.19 1085.41 1317.2 1082.18 1319.49C1079.05 1321.71 1077.81 1323.94 1079.71 1323.94C1080.2 1323.94 1082.1 1323.17 1083.94 1322.23ZM1086.19 1292.42C1080.59 1290.11 1077.16 1288.01 1077.16 1286.89C1077.16 1286.46 1077.58 1285.18 1078.1 1284.04C1079.01 1282.04 1079.16 1282.01 1082.28 1283.11C1084.05 1283.73 1087.8 1284.7 1090.59 1285.25C1093.39 1285.8 1095.67 1286.34 1095.67 1286.45C1095.67 1287.38 1092.1 1294.45 1091.64 1294.43C1091.31 1294.42 1088.86 1293.52 1086.19 1292.42ZM1075.05 1279.85C1069.1 1277.09 1067.34 1271.93 1068.75 1261.29C1070.65 1246.88 1075.42 1241.86 1087.25 1241.84C1098.64 1241.81 1102.42 1245.41 1102.4 1256.25C1102.37 1267.35 1099.26 1275.73 1094.03 1278.79C1090.36 1280.93 1078.8 1281.58 1075.05 1279.85ZM1087.29 1272.53C1089.89 1271.14 1093.21 1256.51 1091.89 1252.34C1090.58 1248.21 1083.2 1248.7 1081.45 1253.02C1078.84 1259.43 1078.13 1270.03 1080.16 1272.07C1081.67 1273.59 1084.94 1273.8 1087.29 1272.53ZM1117 1280.1C1115.53 1279.65 1113.36 1278.12 1112.16 1276.69C1110.25 1274.42 1109.99 1273.38 1110.05 1268.07C1110.08 1264.74 1110.75 1257.66 1111.53 1252.34L1112.95 1242.65L1118.23 1242.4C1123.35 1242.15 1123.49 1242.2 1123.08 1244.08C1122.06 1248.75 1120.09 1264.51 1120.09 1267.96C1120.09 1271.15 1120.41 1271.89 1122.13 1272.68C1124.84 1273.91 1128.18 1272.99 1129.77 1270.55C1130.51 1269.44 1131.87 1262.87 1132.91 1255.4L1134.75 1242.23H1145.02L1143.03 1255.92C1140 1276.72 1137.6 1280.14 1125.67 1280.66C1122.37 1280.81 1118.47 1280.55 1117 1280.1ZM1376.03 1279.85C1371.65 1278.19 1369.81 1275.12 1369.41 1268.8C1368.99 1262.2 1371.13 1251.86 1373.72 1248.02C1376.85 1243.38 1380.49 1241.81 1388.19 1241.81C1396.13 1241.81 1399.97 1243.54 1402.29 1248.15C1406.3 1256.1 1401.91 1274.86 1395.11 1278.88C1391.73 1280.88 1380.28 1281.46 1376.03 1279.85ZM1388.97 1271.43C1391.28 1269.12 1392.82 1262.79 1392.82 1255.64C1392.82 1251.01 1392.65 1250.54 1390.66 1249.79C1387.76 1248.68 1384.59 1249.59 1383.04 1251.96C1381.44 1254.4 1379.19 1266.98 1379.87 1269.7C1380.87 1273.68 1385.79 1274.62 1388.97 1271.43ZM1152.1 1278.47C1149.45 1275.82 1149.34 1273.61 1151.17 1260.35C1152.99 1247.27 1154.06 1244.4 1157.64 1243.03C1159.96 1242.15 1176.39 1241.92 1178.52 1242.74C1179.87 1243.26 1180.27 1246.05 1179.34 1248.48C1178.93 1249.55 1177.4 1249.81 1171.37 1249.81C1163.25 1249.81 1162.18 1250.44 1162.18 1255.23C1162.18 1257.37 1162.24 1257.39 1168.91 1257.39H1175.64V1264.13H1160.67L1160.35 1267.45C1160.18 1269.27 1160.17 1271.17 1160.33 1271.66C1160.51 1272.2 1163.59 1272.55 1168.14 1272.55H1175.64V1280.13H1164.7C1154.93 1280.13 1153.58 1279.96 1152.1 1278.47ZM1184.57 1272.34C1185.17 1268.06 1186.33 1259.55 1187.15 1253.45L1188.64 1242.35L1194.98 1242.08C1205.63 1241.62 1212.44 1242.54 1214.8 1244.77C1217.48 1247.28 1218.2 1251.36 1216.77 1255.89C1215.88 1258.69 1214.94 1259.83 1212.54 1261L1209.46 1262.51L1211.38 1264.43C1212.73 1265.78 1213.47 1267.82 1213.89 1271.34C1214.22 1274.09 1214.69 1277.2 1214.94 1278.24C1215.37 1280.05 1215.16 1280.13 1209.97 1280.13H1204.54L1203 1266.23L1195.23 1265.73L1194.65 1271.04C1193.61 1280.4 1193.8 1280.13 1188.31 1280.13H1183.48L1184.57 1272.34ZM1205.68 1257.09C1206.23 1256.56 1206.92 1255.14 1207.22 1253.93C1207.99 1250.79 1205.84 1248.97 1201.37 1248.97C1197.84 1248.97 1197.74 1249.05 1197.23 1252.12C1196.12 1258.84 1196.23 1259.04 1200.69 1258.52C1202.89 1258.27 1205.13 1257.63 1205.68 1257.09ZM1225.69 1278.07C1223.13 1275.51 1223.06 1272.2 1225.27 1257.42C1226.72 1247.62 1227.01 1246.75 1229.45 1244.57C1232 1242.29 1232.33 1242.23 1241.95 1242.24C1247.38 1242.25 1252.33 1242.57 1252.94 1242.96C1253.72 1243.45 1253.88 1244.59 1253.48 1246.74L1252.9 1249.81H1245.52C1237.49 1249.81 1236.82 1250.14 1235.86 1254.65L1235.28 1257.39H1242.5C1250.28 1257.39 1250.45 1257.52 1249.19 1262.23C1248.72 1264.01 1248.23 1264.13 1241.66 1264.13H1234.64L1234.09 1267.07C1233.13 1272.2 1233.64 1272.55 1242.12 1272.55H1249.72V1280.13H1238.74C1228.2 1280.13 1227.67 1280.05 1225.69 1278.07ZM1267.11 1266.48C1268.16 1258.93 1269.04 1252.09 1269.05 1251.28C1269.08 1250.04 1268.29 1249.81 1263.98 1249.81H1258.88L1259.4 1242.65L1275.7 1242.42C1290.37 1242.21 1291.95 1242.32 1291.49 1243.54C1291.2 1244.28 1290.97 1246 1290.97 1247.35V1249.81H1279.52L1275.4 1279.71L1265.19 1280.21L1267.11 1266.48ZM1287.54 1278.24C1290.3 1271.19 1302.17 1244.2 1302.9 1243.31C1303.92 1242.08 1315.08 1241.8 1316.91 1242.96C1317.6 1243.39 1318.94 1249.68 1320.47 1259.58C1321.81 1268.34 1323.11 1276.54 1323.34 1277.82C1323.75 1280.13 1323.75 1280.13 1318.74 1280.13C1313.29 1280.13 1313.24 1280.08 1312.66 1273.82L1312.43 1271.29H1300.71L1297.29 1280.13H1292.05C1286.95 1280.13 1286.82 1280.08 1287.54 1278.24ZM1311.44 1261.6C1311.02 1255.52 1310.14 1249.81 1309.64 1249.81C1308.81 1249.82 1303.69 1263.11 1304.29 1263.7C1304.57 1263.98 1306.33 1264.1 1308.19 1263.96C1311.24 1263.73 1311.58 1263.49 1311.44 1261.6ZM1329.69 1279.4C1329.69 1278.04 1334.88 1242.65 1335.12 1242.41C1335.25 1242.28 1339.86 1242.14 1345.37 1242.11C1360.24 1242 1363.36 1243.75 1363.36 1252.17C1363.36 1256.99 1361.32 1260.21 1357.17 1261.92C1354.67 1262.95 1354.63 1263.05 1356.36 1263.61C1358.53 1264.31 1359.69 1267.5 1360.49 1274.87L1361.05 1280.13H1350.86L1350.35 1275.29C1349.49 1267.01 1349.07 1266.27 1345.11 1265.98C1341.19 1265.69 1341.26 1265.58 1340.15 1275.29L1339.6 1280.13H1334.64C1331.92 1280.13 1329.69 1279.81 1329.69 1279.4ZM1352.21 1256.71C1353.73 1254.79 1353.55 1250.1 1351.93 1249.48C1351.2 1249.2 1349.12 1248.97 1347.31 1248.97C1343.81 1248.97 1343.92 1248.81 1342.82 1255.44C1342.48 1257.5 1342.71 1258.21 1343.82 1258.5C1346.27 1259.14 1351.1 1258.11 1352.21 1256.71ZM1006.04 1276.92C1003.6 1276.35 1003.5 1276.12 1002.53 1269.18C1001.99 1265.24 1001.51 1260.62 1001.47 1258.9C1001.4 1255.91 1001.55 1255.73 1004.97 1254.83C1012.31 1252.91 1022.32 1247.36 1027.36 1242.41C1031.47 1238.39 1037.56 1229.69 1037.58 1227.81C1037.59 1227.53 1035.38 1227.1 1032.68 1226.85C1027.06 1226.34 1023.03 1224.54 1021.17 1221.7C1020.47 1220.62 1013.81 1202.53 1006.38 1181.5C998.947 1160.46 989.861 1134.75 986.188 1124.37C982.515 1113.99 979.509 1105.18 979.509 1104.79C979.509 1104.4 988.138 1104.08 998.684 1104.08H1017.86L1029.83 1145.14C1036.42 1167.73 1042.39 1189.05 1043.1 1192.53C1043.82 1196 1044.58 1199.7 1044.8 1200.74C1045.04 1201.86 1045.82 1202.64 1046.73 1202.64C1047.97 1202.64 1048.76 1200.73 1050.98 1192.32C1053.03 1184.52 1066.13 1139.1 1075.99 1105.55C1076.39 1104.2 1078.07 1104.08 1095.73 1104.08C1106.35 1104.08 1115.04 1104.2 1115.04 1104.35C1115.04 1105.84 1068.8 1234.96 1066.6 1239.61C1057.7 1258.42 1043.75 1271.31 1027.85 1275.41C1021.94 1276.94 1009.7 1277.79 1006.04 1276.92ZM1238.72 1238.33C1238.13 1237.23 1237.81 1236.2 1238 1236.03C1238.2 1235.87 1241 1233.97 1244.23 1231.83L1250.1 1227.92L1251.56 1230.65C1252.36 1232.15 1253.03 1233.76 1253.05 1234.22C1253.06 1234.69 1250.09 1236.25 1246.43 1237.69L1239.78 1240.32L1238.72 1238.33ZM459.624 1228.42C431.793 1223.88 416.042 1211.13 408.535 1187.05C404.286 1173.43 403.381 1165.35 403.344 1140.72C403.308 1116.71 403.87 1110.82 407.534 1096.77C414.241 1071.06 428.19 1058.16 455.475 1052.45C462.762 1050.92 466.8 1050.68 484.963 1050.69C500.4 1050.69 508.587 1051.08 515.688 1052.13C524.588 1053.45 537.225 1056.28 538.088 1057.14C538.286 1057.34 537.586 1066.18 536.53 1076.79L534.612 1096.08L503.895 1096.5C471.602 1096.94 471.47 1096.96 467.084 1100.95C462.001 1105.59 459.657 1121.31 460.36 1146.06C460.987 1168.15 462.681 1175.24 468.503 1180.15C472.855 1183.81 478.35 1184.4 502.219 1183.74C514.025 1183.42 526.905 1182.86 530.84 1182.5C534.775 1182.13 538.055 1181.87 538.129 1181.92C538.202 1181.96 539.162 1190.85 540.262 1201.67L542.261 1221.35L540.128 1222.16C536.124 1223.68 526.221 1226.17 518.634 1227.56C508.34 1229.44 469.378 1230.01 459.624 1228.42ZM590.186 1227.11C576.046 1224 566.247 1215.83 560.949 1202.72C559.042 1198.01 559.039 1197.95 558.793 1142.83C558.58 1095.3 558.728 1086.84 559.859 1081.76C562.819 1068.46 572.021 1058.61 585.556 1054.24C590.768 1052.55 592.584 1052.47 623.857 1052.62C653.921 1052.76 673.089 1053.47 685.25 1054.9C689.423 1055.39 689.873 1055.64 689.552 1057.23C689.354 1058.21 688.739 1066.87 688.186 1076.46L687.179 1093.92L618.246 1094.39L615.79 1097.14C613.367 1099.86 613.334 1100.03 613.334 1109.99V1120.08H678.152V1156.31H613.334V1168.15C613.334 1174.67 613.722 1180.73 614.196 1181.61C616.124 1185.22 617.325 1185.35 652.898 1185.79L686.99 1186.21L687.957 1199.69C688.489 1207.1 689.073 1215.7 689.256 1218.8L689.588 1224.43L685.764 1224.93C669.362 1227.07 597.464 1228.71 590.186 1227.11ZM694.987 1226.26C694.987 1225.47 703.236 1195.98 729.055 1104.5C741.468 1060.52 742.059 1059.05 748.783 1055.5C752.466 1053.55 752.711 1053.54 782.532 1053.54C812.214 1053.54 812.615 1053.56 816.215 1055.46C823.33 1059.23 823.727 1060.15 834.27 1097.36C861.277 1192.68 870.612 1226.25 870.224 1226.64C869.989 1226.87 857.564 1227.06 842.612 1227.06H815.427L814.615 1223.91C814.168 1222.17 812.185 1213.63 810.207 1204.94L806.611 1189.13L758.685 1189.58L750.074 1226.64L722.531 1226.87C704.808 1227.01 694.987 1226.79 694.987 1226.26ZM797.684 1150.88C797.684 1150.68 795.592 1141.54 793.035 1130.57C790.478 1119.6 787.994 1107.73 787.514 1104.19C786.063 1093.49 786.3 1093.97 782.516 1093.97C780.673 1093.97 779.165 1094.32 779.165 1094.75C779.165 1099.32 770.087 1143.6 767.798 1150.2C767.515 1151.02 770.825 1151.25 782.559 1151.25C790.878 1151.25 797.684 1151.08 797.684 1150.88ZM905.432 1093.97H856.609V1053.54H1008.13V1093.97H959.306V1227.06H905.432V1093.97ZM1181.97 1222.82C1150.63 1219.24 1133.68 1206.68 1125.73 1181.16C1121.94 1168.97 1120.77 1159.78 1120.33 1138.62C1119.88 1117.24 1120.97 1104.47 1124.4 1091.02C1131.63 1062.67 1148.8 1048.88 1181.64 1045.06C1192.63 1043.78 1223.42 1044.49 1234.67 1046.28C1243.59 1047.7 1254 1050.09 1254.97 1050.95C1255.53 1051.44 1252.76 1083.97 1251.75 1088.77L1251.34 1090.73L1221.7 1090.46C1190.2 1090.16 1189.31 1090.25 1185.03 1094.24C1179.68 1099.23 1178.15 1106.16 1177.58 1128.17C1176.75 1159.78 1179.26 1170.93 1188.25 1175.47C1191.82 1177.28 1192.91 1177.36 1212.23 1177.36C1223.36 1177.36 1237.54 1176.97 1243.74 1176.5C1249.94 1176.03 1255.12 1175.75 1255.25 1175.88C1255.38 1176.01 1256.34 1184.74 1257.39 1195.29C1258.66 1208.16 1259.01 1214.74 1258.44 1215.31C1257.16 1216.59 1239.35 1220.88 1230.78 1221.96C1220.63 1223.25 1190.34 1223.78 1181.97 1222.82ZM1336 1223.22C1334.61 1223.03 1330.26 1222.45 1326.32 1221.92C1317.63 1220.75 1305.79 1217 1299.45 1213.41C1283.47 1204.37 1273.64 1184.99 1270.74 1156.83C1269.37 1143.56 1270.08 1111.43 1271.97 1101.13C1277.41 1071.46 1289.69 1055.76 1313.05 1048.6C1324.47 1045.1 1336.04 1044.03 1357.05 1044.52C1368.01 1044.78 1379.92 1045.54 1384.51 1046.27C1393.3 1047.68 1403.84 1050.09 1404.77 1050.91C1405.29 1051.37 1402.78 1080.68 1401.6 1087.93L1401.14 1090.73L1371.52 1090.46C1342.27 1090.18 1341.85 1090.2 1338.11 1092.06C1329.88 1096.15 1327.96 1102.63 1327.39 1128.25C1326.63 1161.7 1329.31 1172.3 1339.51 1176.2C1342.79 1177.45 1346.17 1177.54 1370.74 1177.04C1385.9 1176.73 1399.83 1176.27 1401.71 1176.01L1405.12 1175.53L1407.08 1195.04C1408.32 1207.43 1408.74 1214.84 1408.23 1215.35C1406.98 1216.61 1389.02 1220.9 1380.62 1221.95C1372.86 1222.92 1340.55 1223.84 1336 1223.22ZM1333.33 1021.66C1324.91 1019.5 1317.8 1017.5 1317.52 1017.22C1317.06 1016.75 1346.53 988.537 1348.01 988.042C1348.35 987.926 1350.1 995.789 1351.9 1005.52C1355.43 1024.67 1355.37 1025.82 1350.84 1025.66C1349.63 1025.62 1341.74 1023.82 1333.33 1021.66ZM1295.18 1011.45C1292.63 1010.62 1264.03 1001.95 1231.62 992.184C1199.21 982.413 1162.93 971.467 1150.98 967.858L1129.26 961.299L1052.54 881.695H885.838L879.145 888.093C870.723 896.146 866.862 897.942 857.887 897.982C852.231 898.008 850.277 897.624 845.827 895.613C823.266 885.419 825.287 849.274 848.802 842.434C852.086 841.478 855.591 841.173 860.398 841.426C870.058 841.933 873.588 844.153 883.337 855.851L885.233 858.125L959.308 858.1C1000.05 858.087 1033.38 857.876 1033.38 857.635C1033.38 857.393 1031.01 854.464 1028.1 851.124C1025.2 847.785 1016.61 836.902 1009.02 826.941C994.986 808.529 986.671 798.37 978.513 789.667L973.973 784.823H834.059C752.656 784.823 694.145 785.137 694.145 785.574C694.145 787.528 686.069 795.051 681.689 797.178C677.536 799.194 675.867 799.508 669.313 799.511C663.257 799.514 660.906 799.136 657.595 797.628C650.902 794.58 646.548 790.444 643.492 784.231C641.118 779.406 640.734 777.743 640.726 772.249C640.707 760.086 646.097 751.228 656.691 746.009C669.939 739.482 686.479 744.486 694.278 757.381L697.092 762.031L984.531 762.079L992.625 771.556C997.077 776.768 1007.41 789.177 1015.58 799.131C1070.55 866.09 1077.79 874.374 1118.52 916.834L1130.82 929.651L1136.74 917.677C1143.72 903.549 1153.42 887.828 1162.36 876.161C1170.36 865.722 1183.9 850.598 1190.25 845.029L1195.04 840.82L1175.54 817.244C1164.82 804.277 1139.96 774.24 1120.3 750.496L1084.56 707.325H855.076L853.151 711.304C850.542 716.697 844.889 722.155 839.097 724.871C835.079 726.756 833.142 727.121 827.147 727.121C821.175 727.121 819.209 726.753 815.261 724.901C802.119 718.734 795.411 704.938 798.892 691.236C800.554 684.696 804.346 678.886 809.542 674.921C814.957 670.788 819.733 669.228 827.147 669.17C837.548 669.088 843.874 672.736 853.15 684.164C854.248 685.517 861.84 685.582 975.32 685.221L1096.32 684.836L1153.45 753.412C1184.87 791.128 1211.2 822.789 1211.95 823.769C1213.33 825.544 1213.35 825.534 1219.79 820.683C1230.27 812.796 1245.14 803.606 1257.1 797.638L1268.26 792.066L1265.04 788.655C1263.27 786.779 1255.87 778.944 1248.6 771.244L1235.38 757.244L1231.74 758.553C1228.42 759.747 1227.61 759.738 1222.36 758.443C1207.55 754.786 1198.67 743.484 1199.39 729.227C1199.8 721.083 1202.86 714.674 1209.06 709.008C1214.94 703.631 1220.02 701.929 1228.57 702.48C1236.56 702.995 1241.64 705.158 1247.29 710.441C1255.42 718.049 1258.31 728.321 1255.26 738.791C1254.11 742.754 1254.06 743.862 1254.95 745.115C1255.55 745.95 1265.31 756.558 1276.66 768.688C1288 780.819 1297.56 791.401 1297.91 792.205C1298.64 793.92 1343.16 971.381 1343.16 972.588C1343.16 974.128 1317.49 999.238 1308.83 1006.17C1304.07 1009.99 1300.09 1013.07 1299.99 1013.03C1299.89 1012.99 1297.72 1012.27 1295.18 1011.45ZM1233.02 963.615C1234.67 961.878 1239.72 955.718 1244.24 949.927C1254.09 937.314 1263.6 927.407 1273.29 919.662C1280.04 914.274 1292.26 905.792 1298.33 902.286C1299.84 901.417 1301.07 900.472 1301.07 900.185C1301.07 899.601 1281.06 817.26 1280.35 814.902C1279.73 812.853 1278.6 813.237 1263.57 820.637C1217.79 843.168 1178.11 883.849 1154.63 932.318C1151.87 938.019 1149.75 942.825 1149.92 942.998C1150.42 943.502 1227.28 966.624 1228.72 966.702C1229.43 966.742 1231.37 965.353 1233.02 963.615ZM749.282 980.522C738.883 978.19 732.559 973.569 728.519 965.349C725.958 960.139 725.714 958.975 725.737 952.045C725.766 943.086 727.665 938.247 733.405 932.499C738.958 926.939 744.661 924.437 752.809 923.988C759.155 923.638 760.126 923.81 765.015 926.148C770.907 928.967 773.465 931.147 777.541 936.827L780.292 940.661H1030.86V964.247H778.454L777.534 967.037C776.606 969.851 772.165 974.606 768.157 977.078C763.246 980.106 754.526 981.697 749.282 980.522ZM472.336 960.914C456.368 958.048 446.147 954.719 432.773 948.029C396.658 929.962 370.057 896.218 359.563 855.161C355.757 840.269 354.586 829.129 355.123 812.909C356.259 778.636 368.257 749.047 390.692 725.198C404.153 710.889 417.713 701.299 436.758 692.619C442.654 689.932 447.848 687.286 448.302 686.74C448.755 686.193 449.714 678.74 450.433 670.178C451.829 653.54 453.932 643.759 458.443 632.915C473.782 596.044 510.02 567.292 551.043 559.444C568.218 556.158 591.879 557.967 607.196 563.737L612.742 565.825L613.979 564.059C617.914 558.437 626.268 548.798 633.778 541.216C649.609 525.232 667.017 512.479 687.575 501.802C720.263 484.827 751.269 477.134 787.162 477.091C803.702 477.072 813.777 477.987 827.111 480.72C834.111 482.156 850.703 486.516 851.431 487.112C851.66 487.3 848.051 499.881 846.075 505.779C845.813 506.564 845.149 506.603 843.396 505.936C842.114 505.448 837.565 504.139 833.287 503.027C783.631 490.116 728.247 499.121 682.272 527.58C663.07 539.465 649.886 551.577 632.865 572.967C626.598 580.843 620.986 587.822 620.394 588.475C619.478 589.486 618.025 589.147 610.589 586.183C597.116 580.812 589.536 579.216 575.033 578.697C565.317 578.35 560.661 578.568 554.831 579.643C510.827 587.757 477.653 620.972 470.598 663.979C469.25 672.202 469.317 691.44 470.715 697.369C471.197 699.413 470.861 699.822 467.162 701.686C464.915 702.819 459.099 705.15 454.238 706.867C436.38 713.174 422.107 721.98 409.481 734.481C369.912 773.657 363.365 835.555 393.53 885.287C411.598 915.075 441.233 935.009 476.445 941.061C482.891 942.169 499.443 942.346 596.609 942.346H709.297V962.562L595.026 962.493C489.016 962.429 480.145 962.315 472.336 960.914ZM790.608 640.441C790.034 633.362 790.454 629.488 792.011 627.511C792.666 626.679 813.48 626.457 891.015 626.456L989.19 626.454L1022.78 593.393C1051.4 565.226 1056.82 560.251 1059.4 559.789C1064.4 558.894 1097.66 557.383 1112.38 557.383C1125.93 557.383 1126.14 557.355 1126.63 555.492C1129.01 546.373 1140.43 531.2 1148.44 526.5C1161.02 519.122 1178.37 517.866 1192.01 523.346C1201.87 527.31 1211.89 536.666 1217.03 546.711C1219.63 551.802 1221.94 562.16 1221.93 568.679C1221.9 581.936 1217.56 592.112 1207.66 602.125C1197.23 612.676 1186.33 616.926 1171.86 616.092C1156 615.179 1140.45 606.606 1132.82 594.575C1131.46 592.42 1129.55 587.952 1128.57 584.647C1127.02 579.352 1126.53 578.583 1124.5 578.185C1123.23 577.936 1109.88 577.946 1094.83 578.207L1067.48 578.68L1061.16 584.208C1057.69 587.248 1041.97 602.741 1026.23 618.635L997.607 647.534L791.182 647.515L790.608 640.441ZM1185.11 593.732C1194.64 589.059 1201.79 578.183 1201.94 568.16C1202.06 559.83 1199.87 554.512 1193.82 548.497C1186.87 541.588 1182.07 539.385 1173.96 539.369C1165.74 539.354 1159.74 542.19 1153.34 549.099C1139.6 563.948 1143.83 584.749 1162.41 593.695C1167.11 595.959 1168.33 596.19 1174.38 595.955C1179.33 595.763 1182.17 595.175 1185.11 593.732ZM818.729 533.797H937.427L966.923 515.054C994.554 497.497 996.391 496.178 995.966 494.206C993.993 485.056 993.683 482.018 994.1 475.927C995.539 454.921 1009.44 436.981 1028.57 431.457C1034.52 429.738 1046.47 429.496 1052.74 430.968C1069.22 434.835 1083.03 447.657 1088.21 463.881C1090.5 471.075 1090.68 483.293 1088.59 490.415C1083.5 507.764 1070.18 521.183 1054.35 524.919C1039.9 528.328 1022.72 524.652 1010.23 515.477L1006.87 513.003L999.712 517.761C995.776 520.378 985.627 526.857 977.157 532.159C968.688 537.461 958.281 544.358 954.032 547.486L946.306 553.172H818.729V533.797ZM1054.84 503.936C1060.22 501.302 1063.98 497.249 1066.97 490.875C1068.83 486.912 1069.16 485.054 1069.14 478.622C1069.12 472.226 1068.77 470.293 1066.9 466.26C1061.08 453.733 1049.41 447.695 1036.26 450.411C1029.36 451.836 1025.83 453.826 1021.35 458.809C1010.7 470.669 1012.7 491.737 1025.4 501.432C1033.14 507.344 1045.69 508.412 1054.84 503.936Z" fill="white"/>
<path d="M1317.52 1017.22C1317.8 1017.5 1324.91 1019.5 1333.33 1021.66C1341.74 1023.82 1349.63 1025.62 1350.84 1025.66C1355.37 1025.82 1355.43 1024.67 1351.9 1005.52C1350.1 995.789 1348.35 987.926 1348.01 988.042C1346.53 988.537 1317.06 1016.75 1317.52 1017.22Z" fill="white"/>
<path d="M728.519 965.349C732.559 973.569 738.883 978.19 749.282 980.522C754.526 981.697 763.246 980.106 768.157 977.078C772.165 974.606 776.606 969.851 777.534 967.037L778.454 964.247H1030.86V940.661H780.292L777.541 936.827C773.465 931.147 770.907 928.967 765.015 926.148C760.126 923.81 759.155 923.638 752.809 923.988C744.661 924.437 738.958 926.939 733.405 932.499C727.665 938.247 725.766 943.086 725.737 952.045C725.714 958.975 725.958 960.139 728.519 965.349Z" fill="white"/>
<path d="M432.773 948.029C446.147 954.719 456.368 958.048 472.336 960.914C480.145 962.315 489.016 962.429 595.026 962.493L709.297 962.562V942.346H596.609C499.443 942.346 482.891 942.169 476.445 941.061C441.233 935.009 411.598 915.075 393.53 885.287C363.365 835.555 369.912 773.657 409.481 734.481C422.107 721.98 436.38 713.174 454.238 706.867C459.099 705.15 464.915 702.819 467.162 701.686C470.861 699.822 471.197 699.413 470.715 697.369C469.317 691.44 469.25 672.202 470.598 663.979C477.653 620.972 510.827 587.757 554.831 579.643C560.661 578.568 565.317 578.35 575.033 578.697C589.536 579.216 597.116 580.812 610.589 586.183C618.025 589.147 619.478 589.486 620.394 588.475C620.986 587.822 626.598 580.843 632.865 572.967C649.886 551.577 663.07 539.465 682.272 527.58C728.247 499.121 783.631 490.116 833.287 503.027C837.565 504.139 842.114 505.448 843.396 505.936C845.149 506.603 845.813 506.564 846.075 505.779C848.051 499.881 851.66 487.3 851.431 487.112C850.703 486.516 834.111 482.156 827.111 480.72C813.777 477.987 803.702 477.072 787.162 477.091C751.269 477.134 720.263 484.827 687.575 501.802C667.017 512.479 649.609 525.232 633.778 541.216C626.268 548.798 617.914 558.437 613.979 564.059L612.742 565.825L607.196 563.737C591.879 557.967 568.218 556.158 551.043 559.444C510.02 567.292 473.782 596.044 458.443 632.915C453.932 643.759 451.829 653.54 450.433 670.178C449.714 678.74 448.755 686.193 448.302 686.74C447.848 687.286 442.654 689.932 436.758 692.619C417.713 701.299 404.153 710.889 390.692 725.198C368.257 749.047 356.259 778.636 355.123 812.909C354.586 829.129 355.757 840.269 359.563 855.161C370.057 896.218 396.658 929.962 432.773 948.029Z" fill="white"/>
<path fill-rule="evenodd" clip-rule="evenodd" d="M1295.18 1011.45C1292.63 1010.62 1264.03 1001.95 1231.62 992.184C1199.21 982.413 1162.93 971.467 1150.98 967.858L1129.26 961.299L1052.54 881.695H885.838L879.145 888.093C870.723 896.146 866.862 897.942 857.887 897.982C852.231 898.008 850.277 897.624 845.827 895.613C823.266 885.419 825.287 849.274 848.802 842.434C852.086 841.478 855.591 841.173 860.398 841.426C870.058 841.933 873.588 844.153 883.337 855.851L885.233 858.125L959.308 858.1C1000.05 858.087 1033.38 857.876 1033.38 857.635C1033.38 857.393 1031.01 854.464 1028.1 851.124C1025.2 847.785 1016.61 836.902 1009.02 826.941C994.986 808.529 986.671 798.37 978.513 789.667L973.973 784.823H834.059C752.656 784.823 694.145 785.137 694.145 785.574C694.145 787.528 686.069 795.051 681.689 797.178C677.536 799.194 675.867 799.508 669.313 799.511C663.257 799.514 660.906 799.136 657.595 797.628C650.902 794.58 646.548 790.444 643.492 784.231C641.118 779.406 640.734 777.743 640.726 772.249C640.707 760.086 646.097 751.228 656.691 746.009C669.939 739.482 686.479 744.486 694.278 757.381L697.092 762.031L984.531 762.079L992.625 771.556C997.077 776.768 1007.41 789.177 1015.58 799.131C1070.55 866.09 1077.79 874.374 1118.52 916.834L1130.82 929.651L1136.74 917.677C1143.72 903.549 1153.42 887.828 1162.36 876.161C1170.36 865.722 1183.9 850.598 1190.25 845.029L1195.04 840.82L1175.54 817.244C1164.82 804.277 1139.96 774.24 1120.3 750.496L1084.56 707.325H855.076L853.151 711.304C850.542 716.697 844.889 722.155 839.097 724.871C835.079 726.756 833.142 727.121 827.147 727.121C821.175 727.121 819.209 726.753 815.261 724.901C802.119 718.734 795.411 704.938 798.892 691.236C800.554 684.696 804.346 678.886 809.542 674.921C814.957 670.788 819.733 669.228 827.147 669.17C837.548 669.088 843.874 672.736 853.15 684.164C854.248 685.517 861.84 685.582 975.32 685.221L1096.32 684.836L1153.45 753.412C1184.87 791.128 1211.2 822.789 1211.95 823.769C1213.33 825.544 1213.35 825.534 1219.79 820.683C1230.27 812.796 1245.14 803.606 1257.1 797.638L1268.26 792.066L1265.04 788.655C1263.27 786.779 1255.87 778.944 1248.6 771.244L1235.38 757.244L1231.74 758.553C1228.42 759.747 1227.61 759.738 1222.36 758.443C1207.55 754.786 1198.67 743.484 1199.39 729.227C1199.8 721.083 1202.86 714.674 1209.06 709.008C1214.94 703.631 1220.02 701.929 1228.57 702.48C1236.56 702.995 1241.64 705.158 1247.29 710.441C1255.42 718.049 1258.31 728.321 1255.26 738.791C1254.11 742.754 1254.06 743.862 1254.95 745.115C1255.55 745.95 1265.31 756.558 1276.66 768.688C1288 780.819 1297.56 791.401 1297.91 792.205C1298.64 793.92 1343.16 971.381 1343.16 972.588C1343.16 974.128 1317.49 999.238 1308.83 1006.17C1304.07 1009.99 1300.09 1013.07 1299.99 1013.03C1299.89 1012.99 1297.72 1012.27 1295.18 1011.45ZM1244.24 949.927C1239.72 955.718 1234.67 961.878 1233.02 963.615C1231.37 965.353 1229.43 966.742 1228.72 966.702C1227.28 966.624 1150.42 943.502 1149.92 942.998C1149.75 942.825 1151.87 938.019 1154.63 932.318C1178.11 883.849 1217.79 843.168 1263.57 820.637C1278.6 813.237 1279.73 812.853 1280.35 814.902C1281.06 817.26 1301.07 899.601 1301.07 900.185C1301.07 900.472 1299.84 901.417 1298.33 902.286C1292.26 905.792 1280.04 914.274 1273.29 919.662C1263.6 927.407 1254.09 937.314 1244.24 949.927Z" fill="white"/>
<path fill-rule="evenodd" clip-rule="evenodd" d="M790.608 640.441C790.034 633.362 790.454 629.488 792.011 627.511C792.666 626.679 813.48 626.457 891.015 626.456L989.19 626.454L1022.78 593.393C1051.4 565.226 1056.82 560.251 1059.4 559.789C1064.4 558.894 1097.66 557.383 1112.38 557.383C1125.93 557.383 1126.14 557.355 1126.63 555.492C1129.01 546.373 1140.43 531.2 1148.44 526.5C1161.02 519.122 1178.37 517.866 1192.01 523.346C1201.87 527.31 1211.89 536.666 1217.03 546.711C1219.63 551.802 1221.94 562.16 1221.93 568.679C1221.9 581.936 1217.56 592.112 1207.66 602.125C1197.23 612.676 1186.33 616.926 1171.86 616.092C1156 615.179 1140.45 606.606 1132.82 594.575C1131.46 592.42 1129.55 587.952 1128.57 584.647C1127.02 579.352 1126.53 578.583 1124.5 578.185C1123.23 577.936 1109.88 577.946 1094.83 578.207L1067.48 578.68L1061.16 584.208C1057.69 587.248 1041.97 602.741 1026.23 618.635L997.607 647.534L791.182 647.515L790.608 640.441ZM1201.94 568.16C1201.79 578.183 1194.64 589.059 1185.11 593.732C1182.17 595.175 1179.33 595.763 1174.38 595.955C1168.33 596.19 1167.11 595.959 1162.41 593.695C1143.83 584.749 1139.6 563.948 1153.34 549.099C1159.74 542.19 1165.74 539.354 1173.96 539.369C1182.07 539.385 1186.87 541.588 1193.82 548.497C1199.87 554.512 1202.06 559.83 1201.94 568.16Z" fill="white"/>
<path fill-rule="evenodd" clip-rule="evenodd" d="M818.729 533.797H937.427L966.923 515.054C994.554 497.497 996.391 496.178 995.966 494.206C993.993 485.056 993.683 482.018 994.1 475.927C995.539 454.921 1009.44 436.981 1028.57 431.457C1034.52 429.738 1046.47 429.496 1052.74 430.968C1069.22 434.835 1083.03 447.657 1088.21 463.881C1090.5 471.075 1090.68 483.293 1088.59 490.415C1083.5 507.764 1070.18 521.183 1054.35 524.919C1039.9 528.328 1022.72 524.652 1010.23 515.477L1006.87 513.003L999.712 517.761C995.776 520.378 985.627 526.857 977.157 532.159C968.688 537.461 958.281 544.358 954.032 547.486L946.306 553.172H818.729V533.797ZM1066.97 490.875C1063.98 497.249 1060.22 501.302 1054.84 503.936C1045.69 508.412 1033.14 507.344 1025.4 501.432C1012.7 491.737 1010.7 470.669 1021.35 458.809C1025.83 453.826 1029.36 451.836 1036.26 450.411C1049.41 447.695 1061.08 453.733 1066.9 466.26C1068.77 470.293 1069.12 472.226 1069.14 478.622C1069.16 485.054 1068.83 486.912 1066.97 490.875Z" fill="white"/>
<path d="M408.169 1186.68C415.676 1210.75 431.427 1223.51 459.258 1228.04C469.012 1229.63 507.974 1229.07 518.268 1227.18C525.855 1225.8 535.758 1223.31 539.762 1221.79L541.895 1220.97L539.896 1201.3C538.796 1190.48 537.836 1181.59 537.763 1181.54C537.689 1181.5 534.409 1181.76 530.474 1182.12C526.539 1182.48 513.66 1183.04 501.854 1183.37C477.984 1184.02 472.489 1183.44 468.137 1179.77C462.315 1174.87 460.621 1167.78 459.994 1145.69C459.291 1120.94 461.635 1105.21 466.718 1100.58C471.104 1096.58 471.236 1096.57 503.529 1096.12L534.246 1095.7L536.165 1076.41C537.22 1065.81 537.921 1056.96 537.722 1056.77C536.859 1055.9 524.222 1053.08 515.322 1051.76C508.221 1050.7 500.034 1050.32 484.597 1050.31C466.434 1050.3 462.396 1050.54 455.109 1052.07C427.824 1057.79 413.875 1070.69 407.168 1096.4C403.504 1110.44 402.942 1116.34 402.978 1140.35C403.015 1164.98 403.92 1173.05 408.169 1186.68Z" fill="white"/>
<path d="M560.583 1202.35C565.881 1215.46 575.681 1223.63 589.82 1226.74C597.098 1228.33 668.996 1226.69 685.398 1224.55L689.222 1224.05L688.89 1218.42C688.707 1215.33 688.123 1206.73 687.591 1199.31L686.624 1185.84L652.532 1185.41C616.96 1184.98 615.759 1184.85 613.83 1181.24C613.356 1180.35 612.969 1174.3 612.969 1167.78V1155.93H677.786V1119.71H612.969V1109.61C612.969 1099.65 613.001 1099.48 615.424 1096.77L617.88 1094.02L686.813 1093.54L687.82 1076.09C688.373 1066.49 688.988 1057.84 689.186 1056.86C689.508 1055.26 689.057 1055.02 684.884 1054.53C672.723 1053.1 653.555 1052.39 623.491 1052.25C592.218 1052.1 590.402 1052.18 585.19 1053.86C571.655 1058.23 562.453 1068.09 559.493 1081.38C558.363 1086.46 558.215 1094.93 558.427 1142.45C558.673 1197.57 558.676 1197.63 560.583 1202.35Z" fill="white"/>
<path d="M905.066 1093.6V1226.69H958.94V1093.6H1007.76V1053.16H856.243V1093.6H905.066Z" fill="white"/>
<path d="M1125.37 1180.78C1133.32 1206.31 1150.26 1218.86 1181.6 1222.45C1189.97 1223.41 1220.26 1222.87 1230.41 1221.59C1238.99 1220.5 1256.79 1216.22 1258.07 1214.93C1258.64 1214.36 1258.3 1207.79 1257.02 1194.91C1255.98 1184.37 1255.02 1175.64 1254.88 1175.51C1254.75 1175.37 1249.57 1175.65 1243.37 1176.13C1237.17 1176.6 1222.99 1176.99 1211.86 1176.99C1192.55 1176.99 1191.46 1176.9 1187.88 1175.1C1178.9 1170.55 1176.38 1159.41 1177.21 1127.8C1177.79 1105.79 1179.31 1098.86 1184.67 1093.86C1188.94 1089.88 1189.84 1089.79 1221.33 1090.08L1250.97 1090.36L1251.39 1088.4C1252.4 1083.59 1255.17 1051.07 1254.61 1050.57C1253.64 1049.72 1243.23 1047.32 1234.3 1045.9C1223.05 1044.12 1192.26 1043.41 1181.28 1044.69C1148.43 1048.51 1131.26 1062.3 1124.03 1090.65C1120.61 1104.1 1119.52 1116.86 1119.96 1138.24C1120.4 1159.4 1121.57 1168.6 1125.37 1180.78Z" fill="white"/>
<path d="M1325.96 1221.54C1329.89 1222.07 1334.25 1222.66 1335.64 1222.85C1340.18 1223.47 1372.5 1222.55 1380.25 1221.58C1388.65 1220.52 1406.61 1216.23 1407.87 1214.98C1408.38 1214.47 1407.96 1207.05 1406.71 1194.67L1404.75 1175.16L1401.34 1175.63C1399.46 1175.89 1385.53 1176.36 1370.37 1176.67C1345.81 1177.17 1342.42 1177.08 1339.14 1175.83C1328.95 1171.93 1326.27 1161.33 1327.02 1127.87C1327.6 1102.26 1329.52 1095.78 1337.74 1091.69C1341.48 1089.83 1341.91 1089.81 1371.15 1090.08L1400.77 1090.36L1401.23 1087.56C1402.41 1080.31 1404.93 1051 1404.41 1050.54C1403.47 1049.72 1392.94 1047.3 1384.14 1045.9C1379.56 1045.16 1367.64 1044.4 1356.68 1044.15C1335.67 1043.65 1324.11 1044.72 1312.69 1048.22C1289.32 1055.38 1277.04 1071.09 1271.6 1100.76C1269.72 1111.06 1269.01 1143.18 1270.37 1156.45C1273.28 1184.62 1283.11 1204 1299.08 1213.04C1305.42 1216.63 1317.26 1220.37 1325.96 1221.54Z" fill="white"/>
<path fill-rule="evenodd" clip-rule="evenodd" d="M694.621 1225.88C694.621 1225.09 702.87 1195.61 728.689 1104.13C741.102 1060.14 741.693 1058.68 748.417 1055.12C752.1 1053.18 752.345 1053.16 782.166 1053.16C811.848 1053.16 812.249 1053.18 815.849 1055.09C822.964 1058.86 823.361 1059.78 833.904 1096.99C860.911 1192.31 870.246 1225.88 869.858 1226.26C869.623 1226.5 857.198 1226.69 842.246 1226.69H815.061L814.249 1223.53C813.802 1221.79 811.819 1213.26 809.841 1204.57L806.245 1188.76L758.319 1189.21L749.708 1226.27L722.165 1226.49C704.442 1226.63 694.621 1226.42 694.621 1225.88ZM792.669 1130.19C795.226 1141.16 797.318 1150.3 797.318 1150.51C797.318 1150.71 790.512 1150.88 782.193 1150.88C770.459 1150.88 767.149 1150.64 767.433 1149.82C769.721 1143.23 778.799 1098.95 778.799 1094.38C778.799 1093.95 780.307 1093.6 782.15 1093.6C783.437 1093.6 784.259 1093.54 784.84 1093.89C785.968 1094.56 786.191 1096.75 787.149 1103.82C787.628 1107.36 790.112 1119.23 792.669 1130.19Z" fill="white"/>
<defs>
<linearGradient id="paint0_linear_107_88" x1="584.5" y1="650.5" x2="1801.67" y2="2155.65" gradientUnits="userSpaceOnUse">
<stop stop-color="#009BD3"/>
<stop offset="1" stop-color="#024B8E"/>
</linearGradient>
</defs>
</svg>
